<?xml version="1.0" encoding="UTF-8" standalone="no"?>
<!-- Created with Inkscape (http://www.inkscape.org/) -->

<svg
   xmlns:dc="http://purl.org/dc/elements/1.1/"
   xmlns:cc="http://creativecommons.org/ns#"
   xmlns:rdf="http://www.w3.org/1999/02/22-rdf-syntax-ns#"
   xmlns:svg="http://www.w3.org/2000/svg"
   xmlns="http://www.w3.org/2000/svg"
   xmlns:sodipodi="http://sodipodi.sourceforge.net/DTD/sodipodi-0.dtd"
   xmlns:inkscape="http://www.inkscape.org/namespaces/inkscape"
   width="19.755556mm"
   height="19.018171mm"
   viewBox="0 0 70.000002 67.387221"
   id="svg2"
   version="1.1"
   inkscape:version="0.91 r13725"
   sodipodi:docname="open-source.svg">
  <defs
     id="defs4" />
  <sodipodi:namedview
     id="base"
     pagecolor="#ffffff"
     bordercolor="#666666"
     borderopacity="1.0"
     inkscape:pageopacity="0.0"
     inkscape:pageshadow="2"
     inkscape:zoom="3.959798"
     inkscape:cx="-42.126088"
     inkscape:cy="19.429985"
     inkscape:document-units="px"
     inkscape:current-layer="layer1"
     showgrid="false"
     inkscape:window-width="1366"
     inkscape:window-height="704"
     inkscape:window-x="0"
     inkscape:window-y="27"
     inkscape:window-maximized="1"
     fit-margin-top="0"
     fit-margin-left="0"
     fit-margin-right="0"
     fit-margin-bottom="0" />
  <metadata
     id="metadata7">
    <rdf:RDF>
      <cc:Work
         rdf:about="">
        <dc:format>image/svg+xml</dc:format>
        <dc:type
           rdf:resource="http://purl.org/dc/dcmitype/StillImage" />
        <dc:title />
      </cc:Work>
    </rdf:RDF>
  </metadata>
  <g
     inkscape:label="Camada 1"
     inkscape:groupmode="layer"
     id="layer1"
     transform="translate(309.58773,-513.18972)">
    <path
       style="opacity:0.92400004;fill:#000000;fill-opacity:1;fill-rule:nonzero;stroke:none;stroke-width:0.5;stroke-linejoin:round;stroke-miterlimit:4;stroke-dasharray:none;stroke-opacity:1"
       d="m -274.58878,513.18972 a 35.000025,35.000025 0 0 0 -34.99895,35.00105 35.000025,35.000025 0 0 0 21.77587,32.38617 l 8.46688,-20.47472 a 13.217993,13.217993 0 0 1 -8.59678,-12.36612 13.217993,13.217993 0 0 1 13.21888,-13.2189 13.217993,13.217993 0 0 1 13.2168,13.2189 13.217993,13.217993 0 0 1 -8.29716,12.25926 c 2.4448,5.69796 6.49374,15.02917 9.00535,20.31968 a 35.000025,35.000025 0 0 0 21.21016,-32.12427 35.000025,35.000025 0 0 0 -35.00105,-35.00105 z"
       id="path4147"
       inkscape:connector-curvature="0" />
  </g>
</svg>
